<svg xmlns="http://www.w3.org/2000/svg" xmlns:xlink="http://www.w3.org/1999/xlink" width="72" zoomAndPan="magnify" viewBox="0 0 54 54" height="72" preserveAspectRatio="xMidYMid meet" version="1.0"><defs><clipPath id="id1"><path d="M 0.492188 0 L 53.507812 0 L 53.507812 53 L 0.492188 53 Z M 0.492188 0 " clip-rule="nonzero"/></clipPath><clipPath id="id2"><path d="M 0.492188 0 L 53.507812 0 L 53.507812 53.019531 L 0.492188 53.019531 Z M 0.492188 0 " clip-rule="nonzero"/></clipPath></defs><g clip-path="url(#id1)"><path fill="#ffffff" d="M 53.140625 26.507812 C 53.140625 27.367188 53.097656 28.21875 53.015625 29.070312 C 52.929688 29.921875 52.804688 30.769531 52.636719 31.609375 C 52.472656 32.449219 52.265625 33.277344 52.015625 34.097656 C 51.765625 34.917969 51.480469 35.722656 51.152344 36.511719 C 50.824219 37.304688 50.457031 38.078125 50.054688 38.832031 C 49.652344 39.585938 49.210938 40.320312 48.734375 41.03125 C 48.257812 41.742188 47.75 42.429688 47.207031 43.09375 C 46.664062 43.753906 46.089844 44.386719 45.484375 44.992188 C 44.878906 45.597656 44.246094 46.171875 43.582031 46.714844 C 42.921875 47.257812 42.234375 47.769531 41.523438 48.246094 C 40.8125 48.71875 40.078125 49.160156 39.324219 49.5625 C 38.566406 49.96875 37.792969 50.332031 37.003906 50.660156 C 36.210938 50.988281 35.40625 51.277344 34.589844 51.523438 C 33.769531 51.773438 32.941406 51.980469 32.101562 52.148438 C 31.261719 52.316406 30.414062 52.441406 29.5625 52.523438 C 28.710938 52.609375 27.855469 52.648438 27 52.648438 C 26.144531 52.648438 25.289062 52.609375 24.4375 52.523438 C 23.585938 52.441406 22.738281 52.316406 21.898438 52.148438 C 21.058594 51.980469 20.230469 51.773438 19.410156 51.523438 C 18.59375 51.277344 17.789062 50.988281 16.996094 50.660156 C 16.207031 50.332031 15.433594 49.96875 14.675781 49.5625 C 13.921875 49.160156 13.1875 48.71875 12.476562 48.246094 C 11.765625 47.769531 11.078125 47.257812 10.417969 46.714844 C 9.753906 46.171875 9.121094 45.597656 8.515625 44.992188 C 7.910156 44.386719 7.335938 43.753906 6.792969 43.09375 C 6.25 42.429688 5.742188 41.742188 5.265625 41.03125 C 4.789062 40.320312 4.347656 39.585938 3.945312 38.832031 C 3.542969 38.078125 3.175781 37.304688 2.847656 36.511719 C 2.519531 35.722656 2.234375 34.917969 1.984375 34.097656 C 1.734375 33.277344 1.527344 32.449219 1.363281 31.609375 C 1.195312 30.769531 1.070312 29.921875 0.984375 29.070312 C 0.902344 28.21875 0.859375 27.367188 0.859375 26.507812 C 0.859375 25.652344 0.902344 24.800781 0.984375 23.945312 C 1.070312 23.09375 1.195312 22.25 1.363281 21.410156 C 1.527344 20.570312 1.734375 19.738281 1.984375 18.921875 C 2.234375 18.101562 2.519531 17.296875 2.847656 16.503906 C 3.175781 15.714844 3.542969 14.941406 3.945312 14.1875 C 4.347656 13.429688 4.789062 12.699219 5.265625 11.984375 C 5.742188 11.273438 6.25 10.585938 6.792969 9.925781 C 7.335938 9.261719 7.910156 8.628906 8.515625 8.023438 C 9.121094 7.417969 9.753906 6.84375 10.417969 6.300781 C 11.078125 5.757812 11.765625 5.25 12.476562 4.773438 C 13.1875 4.296875 13.921875 3.859375 14.675781 3.453125 C 15.433594 3.050781 16.207031 2.6875 16.996094 2.359375 C 17.789062 2.03125 18.59375 1.742188 19.410156 1.492188 C 20.230469 1.246094 21.058594 1.039062 21.898438 0.871094 C 22.738281 0.703125 23.585938 0.578125 24.4375 0.492188 C 25.289062 0.410156 26.144531 0.367188 27 0.367188 C 27.855469 0.367188 28.710938 0.410156 29.5625 0.492188 C 30.414062 0.578125 31.261719 0.703125 32.101562 0.871094 C 32.941406 1.039062 33.769531 1.246094 34.589844 1.492188 C 35.40625 1.742188 36.210938 2.03125 37.003906 2.359375 C 37.792969 2.6875 38.566406 3.050781 39.324219 3.453125 C 40.078125 3.859375 40.8125 4.296875 41.523438 4.773438 C 42.234375 5.25 42.921875 5.757812 43.582031 6.300781 C 44.246094 6.84375 44.878906 7.417969 45.484375 8.023438 C 46.089844 8.628906 46.664062 9.261719 47.207031 9.925781 C 47.75 10.585938 48.257812 11.273438 48.734375 11.984375 C 49.210938 12.699219 49.652344 13.429688 50.054688 14.1875 C 50.457031 14.941406 50.824219 15.714844 51.152344 16.503906 C 51.480469 17.296875 51.765625 18.101562 52.015625 18.921875 C 52.265625 19.738281 52.472656 20.570312 52.636719 21.410156 C 52.804688 22.25 52.929688 23.09375 53.015625 23.945312 C 53.097656 24.800781 53.140625 25.652344 53.140625 26.507812 Z M 53.140625 26.507812 " fill-opacity="1" fill-rule="nonzero"/></g><g clip-path="url(#id2)"><path stroke-linecap="butt" transform="matrix(0.736364, 0, 0, 0.736364, 0.490909, 0.00000196364)" fill="none" stroke-linejoin="miter" d="M 71.499617 35.998262 C 71.499617 37.165315 71.441264 38.321758 71.329864 39.478201 C 71.213159 40.634644 71.043405 41.785782 70.8153 42.926311 C 70.592499 44.066839 70.311345 45.191453 69.971839 46.305458 C 69.632333 47.419463 69.245084 48.512248 68.799482 49.583815 C 68.35388 50.660686 67.85523 51.711033 67.308837 52.734856 C 66.762445 53.75868 66.163004 54.755979 65.51582 55.72145 C 64.868637 56.686921 64.179015 57.620563 63.44165 58.522376 C 62.704285 59.418884 61.924482 60.278259 61.10224 61.100501 C 60.279998 61.922743 59.420623 62.702546 58.51881 63.439911 C 57.622302 64.177276 56.68866 64.872202 55.723189 65.519386 C 54.757718 66.161265 53.760419 66.760706 52.736595 67.307098 C 51.707467 67.858796 50.65712 68.352141 49.585554 68.797743 C 48.508682 69.243345 47.415897 69.635899 46.307197 69.9701 C 45.193192 70.309606 44.068578 70.59076 42.92805 70.818866 C 41.787521 71.046971 40.636383 71.216724 39.47994 71.328125 C 38.323497 71.44483 37.161749 71.497878 36.000002 71.497878 C 34.838254 71.497878 33.676506 71.44483 32.520063 71.328125 C 31.36362 71.216724 30.212482 71.046971 29.071953 70.818866 C 27.931425 70.59076 26.806811 70.309606 25.692806 69.9701 C 24.584106 69.635899 23.491321 69.243345 22.414449 68.797743 C 21.342883 68.352141 20.292536 67.858796 19.263408 67.307098 C 18.239584 66.760706 17.242285 66.161265 16.276814 65.519386 C 15.311343 64.872202 14.377701 64.177276 13.481193 63.439911 C 12.57938 62.702546 11.720005 61.922743 10.897763 61.100501 C 10.075521 60.278259 9.295718 59.418884 8.558353 58.522376 C 7.820988 57.620563 7.131366 56.686921 6.484183 55.72145 C 5.836999 54.755979 5.237558 53.75868 4.691166 52.734856 C 4.144773 51.711033 3.646123 50.660686 3.200521 49.583815 C 2.754919 48.512248 2.36767 47.419463 2.028164 46.305458 C 1.688658 45.191453 1.407504 44.066839 1.184703 42.926311 C 0.956598 41.785782 0.786844 40.634644 0.670139 39.478201 C 0.558739 38.321758 0.500386 37.165315 0.500386 35.998262 C 0.500386 34.836515 0.558739 33.680072 0.670139 32.518324 C 0.786844 31.361881 0.956598 30.216048 1.184703 29.075519 C 1.407504 27.934991 1.688658 26.805072 2.028164 25.696372 C 2.36767 24.582367 2.754919 23.489581 3.200521 22.41271 C 3.646123 21.341144 4.144773 20.290797 4.691166 19.266973 C 5.237558 18.237845 5.836999 17.245851 6.484183 16.275075 C 7.131366 15.309604 7.820988 14.375962 8.558353 13.479454 C 9.295718 12.577641 10.075521 11.718265 10.897763 10.896024 C 11.720005 10.073782 12.57938 9.293979 13.481193 8.556614 C 14.377701 7.819249 15.311343 7.129627 16.276814 6.482444 C 17.242285 5.83526 18.239584 5.241124 19.263408 4.689427 C 20.292536 4.143034 21.342883 3.649689 22.414449 3.204087 C 23.491321 2.758485 24.584106 2.365931 25.692806 2.026425 C 26.806811 1.692223 27.931425 1.41107 29.071953 1.182964 C 30.212482 0.954858 31.36362 0.785105 32.520063 0.6684 C 33.676506 0.557 34.838254 0.498647 36.000002 0.498647 C 37.161749 0.498647 38.323497 0.557 39.47994 0.6684 C 40.636383 0.785105 41.787521 0.954858 42.92805 1.182964 C 44.068578 1.41107 45.193192 1.692223 46.307197 2.026425 C 47.415897 2.365931 48.508682 2.758485 49.585554 3.204087 C 50.65712 3.649689 51.707467 4.143034 52.736595 4.689427 C 53.760419 5.241124 54.757718 5.83526 55.723189 6.482444 C 56.68866 7.129627 57.622302 7.819249 58.51881 8.556614 C 59.420623 9.293979 60.279998 10.073782 61.10224 10.896024 C 61.924482 11.718265 62.704285 12.577641 63.44165 13.479454 C 64.179015 14.375962 64.868637 15.309604 65.51582 16.275075 C 66.163004 17.245851 66.762445 18.237845 67.308837 19.266973 C 67.85523 20.290797 68.35388 21.341144 68.799482 22.41271 C 69.245084 23.489581 69.632333 24.582367 69.971839 25.696372 C 70.311345 26.805072 70.592499 27.934991 70.8153 29.075519 C 71.043405 30.216048 71.213159 31.361881 71.329864 32.518324 C 71.441264 33.680072 71.499617 34.836515 71.499617 35.998262 Z M 71.499617 35.998262 " stroke="#dcddeb" stroke-width="1" stroke-opacity="1" stroke-miterlimit="4"/></g><path fill="#000000" d="M 35.164062 39.308594 C 35.152344 39.308594 35.144531 39.308594 35.136719 39.308594 C 30.761719 39.167969 25.640625 34.929688 22.109375 31.394531 C 18.574219 27.863281 14.335938 22.738281 14.199219 18.386719 C 14.152344 16.859375 17.898438 14.144531 17.9375 14.117188 C 18.910156 13.4375 19.988281 13.679688 20.433594 14.292969 C 20.734375 14.710938 23.574219 19.015625 23.882812 19.503906 C 24.203125 20.007812 24.15625 20.765625 23.753906 21.519531 C 23.535156 21.941406 22.804688 23.226562 22.460938 23.828125 C 22.832031 24.355469 23.808594 25.648438 25.832031 27.671875 C 27.859375 29.695312 29.148438 30.675781 29.679688 31.046875 C 30.277344 30.703125 31.566406 29.972656 31.984375 29.75 C 32.730469 29.355469 33.480469 29.304688 33.992188 29.617188 C 34.515625 29.941406 38.808594 32.792969 39.203125 33.070312 C 39.535156 33.304688 39.75 33.703125 39.792969 34.167969 C 39.832031 34.640625 39.6875 35.136719 39.386719 35.570312 C 39.359375 35.609375 36.675781 39.308594 35.164062 39.308594 Z M 35.164062 39.308594 " fill-opacity="1" fill-rule="nonzero"/></svg>